<svg width="178" height="27" viewBox="0 0 178 27" fill="none" xmlns="http://www.w3.org/2000/svg">
<path d="M2.21522 20.9346C1.55254 20.9346 1.01294 20.7358 0.596404 20.3381C0.198801 19.9216 0 19.382 0 18.7193V2.81522C0 2.15255 0.179868 1.64135 0.539604 1.28161C0.89934 0.921875 1.41054 0.742007 2.07322 0.742007H11.8429C12.5624 0.742007 13.0925 0.884008 13.4333 1.16801C13.7741 1.45201 13.9445 1.89695 13.9445 2.50282C13.9445 3.08976 13.7741 3.52523 13.4333 3.80923C13.0925 4.09323 12.5624 4.23523 11.8429 4.23523H4.37363V8.83607H11.2749C11.9944 8.83607 12.5245 8.97807 12.8653 9.26207C13.2061 9.54607 13.3765 9.99101 13.3765 10.5969C13.3765 11.1838 13.2061 11.6193 12.8653 11.9033C12.5245 12.1873 11.9944 12.3293 11.2749 12.3293H4.37363V18.7193C4.37363 19.4009 4.17483 19.9405 3.77723 20.3381C3.39856 20.7358 2.87789 20.9346 2.21522 20.9346Z" fill="#2B2B43"/>
<path d="M22.3368 20.9914C20.86 20.9914 19.563 20.6979 18.4459 20.1109C17.3289 19.5051 16.4674 18.6625 15.8615 17.5833C15.2556 16.4852 14.9527 15.1977 14.9527 13.7209C14.9527 12.2441 15.2556 10.9661 15.8615 9.88687C16.4674 8.78873 17.3289 7.94619 18.4459 7.35925C19.563 6.77232 20.86 6.47885 22.3368 6.47885C23.8136 6.47885 25.1105 6.77232 26.2276 7.35925C27.3447 7.94619 28.2061 8.78873 28.812 9.88687C29.4179 10.9661 29.7208 12.2441 29.7208 13.7209C29.7208 15.1977 29.4179 16.4852 28.812 17.5833C28.2061 18.6625 27.3447 19.5051 26.2276 20.1109C25.1105 20.6979 23.8136 20.9914 22.3368 20.9914ZM22.3368 17.7253C24.4194 17.7253 25.4608 16.3905 25.4608 13.7209C25.4608 12.3766 25.1862 11.3732 24.6372 10.7105C24.107 10.0478 23.3402 9.71647 22.3368 9.71647C20.2541 9.71647 19.2127 11.0513 19.2127 13.7209C19.2127 16.3905 20.2541 17.7253 22.3368 17.7253Z" fill="#2B2B43"/>
<path d="M39.033 20.9914C37.5562 20.9914 36.2592 20.6979 35.1421 20.1109C34.0251 19.5051 33.1636 18.6625 32.5577 17.5833C31.9519 16.4852 31.6489 15.1977 31.6489 13.7209C31.6489 12.2441 31.9519 10.9661 32.5577 9.88687C33.1636 8.78873 34.0251 7.94619 35.1421 7.35925C36.2592 6.77232 37.5562 6.47885 39.033 6.47885C40.5098 6.47885 41.8067 6.77232 42.9238 7.35925C44.0409 7.94619 44.9024 8.78873 45.5082 9.88687C46.1141 10.9661 46.417 12.2441 46.417 13.7209C46.417 15.1977 46.1141 16.4852 45.5082 17.5833C44.9024 18.6625 44.0409 19.5051 42.9238 20.1109C41.8067 20.6979 40.5098 20.9914 39.033 20.9914ZM39.033 17.7253C41.1157 17.7253 42.157 16.3905 42.157 13.7209C42.157 12.3766 41.8825 11.3732 41.3334 10.7105C40.8033 10.0478 40.0364 9.71647 39.033 9.71647C36.9503 9.71647 35.909 11.0513 35.909 13.7209C35.909 16.3905 36.9503 17.7253 39.033 17.7253Z" fill="#2B2B43"/>
<path d="M60.9264 0.600006C61.5891 0.600006 62.1192 0.779874 62.5168 1.13961C62.9334 1.49935 63.1416 1.97268 63.1416 2.55962V18.9181C63.1416 19.524 62.9428 20.0163 62.5452 20.3949C62.1666 20.7547 61.6554 20.9346 61.0116 20.9346C60.3679 20.9346 59.8472 20.7547 59.4496 20.3949C59.071 20.0163 58.8816 19.524 58.8816 18.9181V18.6909C58.4651 19.4104 57.8687 19.9784 57.0924 20.3949C56.3351 20.7925 55.4736 20.9914 54.508 20.9914C53.3152 20.9914 52.2454 20.6884 51.2988 20.0825C50.371 19.4577 49.6421 18.5963 49.1119 17.4981C48.6007 16.3811 48.3451 15.103 48.3451 13.6641C48.3451 12.2252 48.6007 10.9661 49.1119 9.88687C49.6421 8.78873 50.371 7.94619 51.2988 7.35925C52.2265 6.77232 53.2962 6.47885 54.508 6.47885C55.4547 6.47885 56.3067 6.67765 57.064 7.07525C57.8403 7.47286 58.4367 8.03139 58.8532 8.75087V2.47442C58.8532 1.90642 59.0426 1.45201 59.4212 1.11121C59.7999 0.770408 60.3016 0.600006 60.9264 0.600006ZM55.7576 17.7253C56.7611 17.7253 57.5279 17.3845 58.058 16.7029C58.6071 16.0024 58.8816 15.0084 58.8816 13.7209C58.8816 12.4334 58.6071 11.4489 58.058 10.7673C57.5279 10.0857 56.7611 9.74487 55.7576 9.74487C54.7541 9.74487 53.9778 10.0857 53.4288 10.7673C52.8797 11.43 52.6052 12.3956 52.6052 13.6641C52.6052 14.9516 52.8797 15.9551 53.4288 16.6745C53.9778 17.3751 54.7541 17.7253 55.7576 17.7253Z" fill="#2B2B43"/>
<path d="M85.6313 0.624805C86.294 0.624805 86.8241 0.804673 87.2217 1.16441C87.6382 1.52414 87.8465 1.99748 87.8465 2.58442V18.9429C87.8465 19.5488 87.6477 20.0411 87.2501 20.4197C86.8714 20.7795 86.3602 20.9593 85.7165 20.9593C85.0728 20.9593 84.5521 20.7795 84.1545 20.4197C83.7758 20.0411 83.5865 19.5488 83.5865 18.9429V18.7157C83.1699 19.4352 82.5735 20.0032 81.7973 20.4197C81.0399 20.8173 80.1785 21.0162 79.2129 21.0162C78.02 21.0162 76.9503 20.7132 76.0036 20.1073C75.0759 19.4825 74.3469 18.6211 73.8168 17.5229C73.3056 16.4058 73.05 15.1278 73.05 13.6889C73.05 12.25 73.3056 10.9909 73.8168 9.91167C74.3469 8.81353 75.0759 7.97099 76.0036 7.38405C76.9314 6.79712 78.0011 6.50365 79.2129 6.50365C80.1595 6.50365 81.0115 6.70245 81.7689 7.10005C82.5451 7.49765 83.1415 8.05619 83.5581 8.77566V2.49922C83.5581 1.93121 83.7474 1.47681 84.1261 1.13601C84.5048 0.795206 85.0065 0.624805 85.6313 0.624805ZM80.4625 17.7501C81.4659 17.7501 82.2327 17.4093 82.7629 16.7277C83.3119 16.0272 83.5865 15.0332 83.5865 13.7457C83.5865 12.4582 83.3119 11.4737 82.7629 10.7921C82.2327 10.1105 81.4659 9.76967 80.4625 9.76967C79.459 9.76967 78.6827 10.1105 78.1336 10.7921C77.5846 11.4547 77.31 12.4204 77.31 13.6889C77.31 14.9764 77.5846 15.9798 78.1336 16.6993C78.6827 17.3999 79.459 17.7501 80.4625 17.7501Z" fill="#4E60FF"/>
<path d="M102.339 16.6425C102.717 16.6425 103.02 16.794 103.247 17.0969C103.494 17.3999 103.617 17.788 103.617 18.2613C103.617 18.5832 103.522 18.8861 103.333 19.1701C103.143 19.4352 102.878 19.6624 102.537 19.8517C101.894 20.1925 101.146 20.4765 100.294 20.7037C99.4418 20.912 98.656 21.0162 97.9366 21.0162C96.4219 21.0162 95.0966 20.7227 93.9605 20.1357C92.8435 19.5488 91.982 18.7157 91.3761 17.6365C90.7703 16.5384 90.4673 15.2509 90.4673 13.7741C90.4673 12.3541 90.7608 11.095 91.3477 9.99687C91.9347 8.89873 92.7488 8.04672 93.7901 7.44085C94.8315 6.81605 96.0148 6.50365 97.3402 6.50365C98.6087 6.50365 99.7163 6.78765 100.663 7.35565C101.629 7.90472 102.376 8.69993 102.907 9.74127C103.437 10.7637 103.702 11.966 103.702 13.3481C103.702 13.7646 103.598 14.0865 103.389 14.3137C103.2 14.522 102.926 14.6261 102.566 14.6261H94.6137C94.7463 15.7432 95.0871 16.5573 95.6362 17.0685C96.1852 17.5608 96.971 17.8069 97.9934 17.8069C98.5424 17.8069 99.0347 17.7407 99.4702 17.6081C99.9057 17.4756 100.388 17.2957 100.919 17.0685C101.184 16.9549 101.439 16.8603 101.685 16.7845C101.932 16.6899 102.149 16.6425 102.339 16.6425ZM97.4538 9.45727C96.6396 9.45727 95.9864 9.72234 95.4942 10.2525C95.0019 10.7637 94.7084 11.5115 94.6137 12.4961H100.095C100.038 11.4926 99.7826 10.7353 99.3282 10.2241C98.8927 9.71287 98.2679 9.45727 97.4538 9.45727Z" fill="#4E60FF"/>
<path d="M108.45 20.9593C107.826 20.9593 107.305 20.7889 106.888 20.4481C106.491 20.1073 106.292 19.6056 106.292 18.9429V2.64122C106.292 1.97855 106.491 1.47681 106.888 1.13601C107.305 0.795206 107.826 0.624805 108.45 0.624805C109.056 0.624805 109.558 0.795206 109.956 1.13601C110.372 1.47681 110.58 1.97855 110.58 2.64122V18.9429C110.58 19.6056 110.372 20.1073 109.956 20.4481C109.558 20.7889 109.056 20.9593 108.45 20.9593Z" fill="#4E60FF"/>
<path d="M116.022 20.9593C115.397 20.9593 114.876 20.7889 114.46 20.4481C114.062 20.1073 113.864 19.6056 113.864 18.9429V8.57686C113.864 7.91419 114.072 7.41245 114.488 7.07165C114.905 6.73085 115.416 6.56045 116.022 6.56045C116.628 6.56045 117.13 6.73085 117.527 7.07165C117.944 7.41245 118.152 7.91419 118.152 8.57686V18.9429C118.152 19.6056 117.944 20.1073 117.527 20.4481C117.13 20.7889 116.628 20.9593 116.022 20.9593ZM116.022 4.28843C115.265 4.28843 114.668 4.0991 114.233 3.72043C113.797 3.32282 113.58 2.79269 113.58 2.13002C113.58 1.46734 113.797 0.946674 114.233 0.568005C114.668 0.189335 115.265 0 116.022 0C116.76 0 117.347 0.198802 117.783 0.596405C118.237 0.975074 118.464 1.48628 118.464 2.13002C118.464 2.79269 118.247 3.32282 117.811 3.72043C117.376 4.0991 116.779 4.28843 116.022 4.28843Z" fill="#4E60FF"/>
<path d="M130.949 7.78166C131.138 7.38405 131.385 7.09058 131.688 6.90125C132.009 6.69298 132.35 6.58885 132.71 6.58885C133.24 6.58885 133.713 6.76872 134.13 7.12845C134.547 7.46925 134.755 7.88579 134.755 8.37806C134.755 8.66206 134.689 8.9366 134.556 9.20167L129.444 19.6813C129.255 20.0979 128.971 20.4197 128.592 20.6469C128.213 20.8552 127.806 20.9593 127.371 20.9593C126.935 20.9593 126.528 20.8552 126.15 20.6469C125.771 20.4197 125.477 20.0979 125.269 19.6813L120.157 9.20167C120.043 8.9366 119.987 8.681 119.987 8.43486C119.987 7.92366 120.204 7.48819 120.64 7.12845C121.094 6.76872 121.596 6.58885 122.145 6.58885C122.543 6.58885 122.902 6.69298 123.224 6.90125C123.546 7.09058 123.802 7.38405 123.991 7.78166L127.484 15.4213L130.949 7.78166Z" fill="#4E60FF"/>
<path d="M147.518 16.6425C147.897 16.6425 148.2 16.794 148.427 17.0969C148.673 17.3999 148.796 17.788 148.796 18.2613C148.796 18.5832 148.702 18.8861 148.512 19.1701C148.323 19.4352 148.058 19.6624 147.717 19.8517C147.073 20.1925 146.325 20.4765 145.473 20.7037C144.621 20.912 143.836 21.0162 143.116 21.0162C141.602 21.0162 140.276 20.7227 139.14 20.1357C138.023 19.5488 137.162 18.7157 136.556 17.6365C135.95 16.5384 135.647 15.2509 135.647 13.7741C135.647 12.3541 135.94 11.095 136.527 9.99687C137.114 8.89873 137.928 8.04672 138.97 7.44085C140.011 6.81605 141.194 6.50365 142.52 6.50365C143.788 6.50365 144.896 6.78765 145.843 7.35565C146.808 7.90472 147.556 8.69993 148.086 9.74127C148.616 10.7637 148.881 11.966 148.881 13.3481C148.881 13.7646 148.777 14.0865 148.569 14.3137C148.38 14.522 148.105 14.6261 147.745 14.6261H139.793C139.926 15.7432 140.267 16.5573 140.816 17.0685C141.365 17.5608 142.151 17.8069 143.173 17.8069C143.722 17.8069 144.214 17.7407 144.65 17.6081C145.085 17.4756 145.568 17.2957 146.098 17.0685C146.363 16.9549 146.619 16.8603 146.865 16.7845C147.111 16.6899 147.329 16.6425 147.518 16.6425ZM142.633 9.45727C141.819 9.45727 141.166 9.72234 140.674 10.2525C140.182 10.7637 139.888 11.5115 139.793 12.4961H145.275C145.218 11.4926 144.962 10.7353 144.508 10.2241C144.072 9.71287 143.448 9.45727 142.633 9.45727Z" fill="#4E60FF"/>
<path d="M159.793 6.56045C160.361 6.52258 160.806 6.65511 161.128 6.95805C161.468 7.24205 161.639 7.67752 161.639 8.26446C161.639 8.88926 161.487 9.35313 161.184 9.65607C160.882 9.95901 160.342 10.1483 159.566 10.2241L158.714 10.3093C157.672 10.4229 156.915 10.7637 156.442 11.3317C155.987 11.8997 155.76 12.6286 155.76 13.5185V18.9429C155.76 19.6056 155.552 20.1073 155.135 20.4481C154.738 20.7889 154.236 20.9593 153.63 20.9593C153.005 20.9593 152.485 20.7889 152.068 20.4481C151.67 20.1073 151.472 19.6056 151.472 18.9429V8.52006C151.472 7.89526 151.68 7.41245 152.096 7.07165C152.513 6.73085 153.015 6.56045 153.602 6.56045C154.17 6.56045 154.643 6.73085 155.022 7.07165C155.4 7.39352 155.59 7.84792 155.59 8.43486V9.20167C155.93 8.38753 156.442 7.76272 157.123 7.32725C157.824 6.89178 158.581 6.64565 159.395 6.58885L159.793 6.56045Z" fill="#4E60FF"/>
<path d="M173.244 7.78166C173.415 7.38405 173.651 7.09058 173.954 6.90125C174.276 6.71191 174.617 6.61725 174.977 6.61725C175.526 6.61725 176.009 6.79712 176.425 7.15685C176.842 7.49765 177.05 7.91419 177.05 8.40646C177.05 8.67153 176.984 8.9366 176.851 9.20167L169.212 24.8786C169.022 25.2762 168.767 25.5696 168.445 25.759C168.123 25.9673 167.782 26.0714 167.422 26.0714C166.892 26.0714 166.428 25.901 166.031 25.5602C165.633 25.2194 165.434 24.8028 165.434 24.3106C165.434 24.0076 165.501 23.7236 165.633 23.4586L167.508 19.5677L162.452 9.20167C162.339 8.9366 162.282 8.681 162.282 8.43486C162.282 7.92366 162.5 7.48819 162.935 7.12845C163.389 6.76872 163.901 6.58885 164.469 6.58885C164.847 6.58885 165.198 6.69298 165.52 6.90125C165.841 7.09058 166.097 7.38405 166.286 7.78166L169.808 15.4497L173.244 7.78166Z" fill="#4E60FF"/>
</svg>
